<?xml version="1.0" encoding="UTF-8" standalone="no"?>
<!DOCTYPE svg PUBLIC "-//W3C//DTD SVG 1.1//EN" "http://www.w3.org/Graphics/SVG/1.1/DTD/svg11.dtd">
<svg width="100%" height="100%" viewBox="0 0 317 536" version="1.1" xmlns="http://www.w3.org/2000/svg" xmlns:xlink="http://www.w3.org/1999/xlink" xml:space="preserve" xmlns:serif="http://www.serif.com/" style="fill-rule:evenodd;clip-rule:evenodd;stroke-linejoin:round;stroke-miterlimit:1.41421;">
    <g transform="matrix(1,0,0,1,-109.786,0)">
        <path d="M425.792,376.045C425.792,343.042 414.862,273.255 369.441,207.674C330.223,151.05 266.259,0 266.259,0C266.259,0 205.355,151.05 166.137,207.673C120.716,273.254 109.786,343.041 109.786,376.045C109.786,463.131 179.564,533.908 266.259,535.54L266.259,535.578C266.77,535.578 267.279,535.563 267.789,535.559C268.3,535.564 268.809,535.578 269.32,535.578L269.32,535.54C356.014,533.908 425.792,463.131 425.792,376.045Z" style="fill:rgb(77,77,77);fill-rule:nonzero;"/>
    </g>
</svg>
