<!DOCTYPE svg PUBLIC "-//W3C//DTD SVG 20010904//EN" "http://www.w3.org/TR/2001/REC-SVG-20010904/DTD/svg10.dtd">
<svg version="1.0" xmlns="http://www.w3.org/2000/svg" width="300px" height="300px" viewBox="0 0 3000 3000" preserveAspectRatio="xMidYMid meet">
<g id="layer101" fill="#000000" stroke="none">
 <path d="M970 2998 c0 -2 96 -280 213 -618 l213 -615 -405 -3 c-223 -1 -409 -6 -413 -10 -7 -7 1397 -1727 1427 -1747 8 -5 16 -7 19 -4 3 2 -91 281 -208 619 l-212 615 405 3 c223 1 409 6 413 10 10 10 -1416 1746 -1437 1750 -8 2 -15 2 -15 0z"/>
 </g>

</svg>