<?xml version="1.0" encoding="UTF-8" standalone="no"?>
<!DOCTYPE svg PUBLIC "-//W3C//DTD SVG 1.1//EN" "http://www.w3.org/Graphics/SVG/1.1/DTD/svg11.dtd">
<svg width="100%" height="100%" viewBox="0 0 100 100" version="1.1" xmlns="http://www.w3.org/2000/svg" xmlns:xlink="http://www.w3.org/1999/xlink" xml:space="preserve" xmlns:serif="http://www.serif.com/" style="fill-rule:evenodd;clip-rule:evenodd;stroke-linejoin:round;stroke-miterlimit:1.41421;">
    <g transform="matrix(1.19208,0,0,1.19208,-19.0685,-15.217)">
        <g id="Layer1">
            <circle cx="57.674" cy="54.509" r="39.953" style="fill:rgb(0,78,255);"/>
        </g>
    </g>
    <path d="M50,1.886C23.47,1.886 1.886,23.47 1.886,50C1.886,76.53 23.47,98.114 50,98.114C76.53,98.114 98.114,76.53 98.114,50C98.114,23.47 76.53,1.886 50,1.886ZM74.247,14.874C74.262,14.909 74.27,14.946 74.27,14.984L74.27,16.837C74.27,16.92 74.234,16.998 74.171,17.052L73.221,17.86C73.168,17.905 73.103,17.927 73.038,17.927C72.972,17.927 72.906,17.904 72.853,17.858L70.667,15.957L68.659,13.998L67.54,12.542L66.488,11.061C65.168,9.578 64.956,9.209 64.922,9.063C64.802,8.862 64.043,8.052 63.383,7.391C63.368,7.375 63.354,7.358 63.342,7.339L62.099,5.313L59.695,4.015C59.688,4.011 59.683,4.005 59.677,4.001C65.282,5.179 70.516,7.364 75.196,10.348L74.825,11.418L74.252,12.945C74.235,12.989 74.208,13.029 74.172,13.06L73.664,13.496L74.247,14.874ZM70.575,31.852C70.522,31.899 70.455,31.923 70.388,31.923C70.344,31.923 70.3,31.913 70.259,31.892L68.326,30.9L64.891,30.953C64.763,30.95 64.643,30.866 64.612,30.737L64.235,29.173C64.209,29.062 64.251,28.946 64.344,28.879L66.502,27.315C66.584,27.256 66.692,27.245 66.783,27.286L68.347,27.987C68.366,27.995 68.383,28.005 68.399,28.018L69.639,28.935C69.684,28.968 69.717,29.012 69.736,29.064L70.653,31.545C70.693,31.653 70.662,31.775 70.575,31.852ZM60.302,13.05C60.243,13.138 60.144,13.285 58.421,13.691C58.4,13.696 58.378,13.698 58.357,13.698C58.289,13.698 58.221,13.673 58.169,13.626C57.178,12.742 56.048,11.773 55.874,11.68C55.717,11.645 53.784,10.734 52.963,10.345C52.882,10.307 52.824,10.232 52.807,10.144C52.79,10.056 52.816,9.965 52.877,9.899L53.969,8.715L54.585,6.384L53.831,5.194L49.377,5.194C49.221,5.194 49.095,5.068 49.095,4.912L49.095,3.962C49.095,3.869 49.141,3.781 49.219,3.729L50.289,3.003C51.519,3.01 52.736,3.073 53.943,3.173L55.7,3.49C55.756,3.5 55.809,3.527 55.849,3.568C56.621,4.342 57.504,5.212 57.618,5.299C57.672,5.335 57.769,5.425 58.055,5.691C58.41,6.023 59.072,6.64 59.292,6.75C59.689,6.949 61.713,8.842 62.115,9.22C62.19,9.291 62.221,9.399 62.194,9.499L61.719,11.257C61.698,11.338 61.641,11.404 61.565,11.439C61.489,11.475 61.401,11.474 61.326,11.438L59.493,10.574C60.468,12.8 60.39,12.916 60.302,13.05ZM45.752,3.195C45.741,3.266 45.709,3.333 45.65,3.378L44.384,4.339L44.384,5.529C44.384,5.685 44.258,5.811 44.102,5.811L42.107,5.811L39.275,5.524C39.166,5.513 39.074,5.44 39.038,5.337L38.753,4.53C38.734,4.476 38.733,4.419 38.747,4.366C41.022,3.804 43.361,3.411 45.752,3.195ZM90.857,64.969L90.277,60.677C90.268,60.607 90.284,60.536 90.324,60.479L92.357,57.543L92.357,53.35C92.357,53.311 92.365,53.272 92.381,53.237L94.464,48.493L96.623,44.1C96.866,46.033 97.006,48 97.006,50C97.006,57.611 95.176,64.799 91.951,71.165L90.857,64.969ZM48.836,96.976L49.586,95.203L49.586,89.813L48.107,88.615L45.041,86.673C45.021,86.66 45.002,86.645 44.986,86.628L42.446,83.912L40.461,81.588L40.063,81.588C39.914,81.588 39.791,81.473 39.781,81.325L39.63,79.062L39.406,77.499C39.4,77.455 39.404,77.411 39.418,77.37L40.097,75.333C40.123,75.257 40.18,75.195 40.254,75.163L42.342,74.269L42.171,73.075C42.167,73.048 42.167,73.02 42.172,72.993L42.353,71.802L40.832,70.219L39.641,71.872C39.596,71.934 39.529,71.975 39.453,71.986C39.379,71.997 39.3,71.977 39.24,71.93L37.075,70.26L34.338,69.234C34.228,69.193 34.155,69.087 34.155,68.97L34.155,67.49L31.885,65.76L29.4,65.195C29.354,65.185 29.312,65.163 29.277,65.132L28.383,64.35L24.889,62.772L22.057,62.772C22.017,62.772 21.979,62.764 21.942,62.748L18.818,61.36L16.252,59.961C16.167,59.914 16.111,59.827 16.105,59.73L15.879,55.881L14.888,54.56L13.52,51.856C13.507,51.831 13.498,51.804 13.494,51.776L13.006,48.893L11.084,47.703L10.888,50.741L13.511,55.646C13.574,55.763 13.546,55.908 13.445,55.994C13.344,56.08 13.196,56.084 13.091,56.003L11.587,54.846L9.393,53.229L8.551,52.392C8.498,52.339 8.468,52.267 8.468,52.193L8.468,45.419L8.024,44.271C8.012,44.238 8.005,44.204 8.005,44.169L8.005,35.878C8.005,35.829 8.018,35.781 8.042,35.738L8.968,34.118C8.977,34.101 10.348,31.472 10.571,30.913C10.795,30.353 11.71,27.266 11.719,27.235C11.755,27.115 11.865,27.033 11.99,27.033L12.865,27.033L12.865,22.571C12.865,22.491 12.9,22.414 12.96,22.36L13.956,21.474L14.948,19.27L14.948,18.728C15.371,18.255 15.805,17.793 16.246,17.337L17.116,16.806L17.85,15.757C23.195,10.735 29.708,6.951 36.937,4.856L36.891,5.529L40.624,6.797L43.504,6.5C43.55,6.495 43.599,6.502 43.643,6.521L45.327,7.233L46.36,4.274C46.379,4.219 46.414,4.171 46.462,4.137L47.518,3.383C47.604,3.322 47.715,3.314 47.808,3.36C47.901,3.406 47.962,3.5 47.964,3.605L48.034,6.125L48.877,6.416L51.642,6.048C51.764,6.033 51.874,6.092 51.929,6.196C51.984,6.301 51.968,6.428 51.889,6.516L49.853,8.78C49.799,8.84 49.723,8.873 49.643,8.873L47.053,8.873L47.564,10.064C47.598,10.142 47.594,10.232 47.554,10.307C47.514,10.382 47.442,10.435 47.358,10.452L45.02,10.905L43.123,11.417L40.737,13.008L39.52,15.511L39.648,17.361L40.742,17.361C40.794,17.361 40.845,17.375 40.889,17.402L44.736,19.74C44.788,19.772 44.829,19.82 44.851,19.876L45.454,21.385C45.469,21.421 45.475,21.46 45.474,21.499L45.404,23.694L46.784,24.774L47.702,23.367L47.702,21.263C47.702,21.169 47.748,21.082 47.826,21.029L50.272,19.374L50.342,17.405L50.342,16.133C50.342,16.039 50.389,15.951 50.468,15.898L50.84,15.65L51.251,14.416L51.399,12.714C51.408,12.612 51.472,12.522 51.567,12.48L53.302,11.717C53.391,11.678 53.495,11.687 53.576,11.743L56.216,13.562C56.275,13.603 56.316,13.665 56.331,13.734L56.907,16.396L58.232,17.091L60.208,15.891C60.284,15.845 60.377,15.837 60.459,15.87C60.541,15.903 60.603,15.972 60.627,16.057L61.581,19.507L65.272,22.164C65.299,22.183 65.322,22.207 65.341,22.235L66.925,24.573C66.992,24.672 66.99,24.804 66.917,24.9L65.786,26.409C65.763,26.439 65.735,26.464 65.703,26.483L64.42,27.24C64.37,27.269 64.311,27.282 64.254,27.278L59.577,26.9L56.683,26.467L54.315,28.89L58.158,27.707C58.204,27.694 58.253,27.691 58.299,27.701L59.733,28.003C59.886,28.035 59.983,28.184 59.951,28.336L59.539,30.324L62.757,32.183C62.857,32.241 62.912,32.354 62.895,32.468C62.878,32.583 62.793,32.675 62.68,32.702L60.115,33.306L57.593,34.348C57.521,34.377 57.441,34.376 57.37,34.344L55.963,33.711L54.284,34.292L54.146,36.218C54.136,36.366 54.013,36.48 53.864,36.48L49.979,36.48L48.402,37.986L47.017,39.59L46.066,41.932L45.694,44.212C45.676,44.319 45.599,44.407 45.494,44.438L41.087,45.713L40.104,47.678L39.745,49.689L40.484,52.572C40.499,52.631 40.494,52.694 40.471,52.751L39.717,54.561C39.68,54.649 39.601,54.713 39.508,54.73C39.415,54.747 39.318,54.717 39.252,54.647L37.819,53.138C37.796,53.114 37.778,53.086 37.764,53.056L36.657,50.502L35.557,49.513L32.082,48.934L29.128,49.821C29.087,49.833 29.044,49.836 29.001,49.829L26.816,49.465L24.074,50.575L23.294,51.33L23.294,54.454L23.586,57.811L26.066,60.277L27.667,60.213L28.194,59.224C28.204,59.205 28.216,59.188 28.23,59.172L29.739,57.437C29.779,57.39 29.834,57.358 29.895,57.346L32.46,56.818C32.556,56.798 32.658,56.831 32.725,56.904C32.792,56.977 32.815,57.08 32.787,57.175L32.108,59.438L30.598,62.876L34.348,63.149C34.377,63.151 34.405,63.158 34.432,63.168L35.94,63.772C36.043,63.813 36.112,63.911 36.117,64.021L36.262,67.2L38.643,68.833L40.302,67.935C40.405,67.88 40.53,67.892 40.618,67.967L42.306,69.385L44.612,67.079C44.652,67.038 44.704,67.012 44.76,67.001L47.626,66.473C47.711,66.457 47.799,66.482 47.865,66.539C47.93,66.597 47.965,66.681 47.959,66.768L47.844,68.6L50.081,67.047C50.149,67 50.23,66.984 50.306,67L54.832,67.981L58.117,68.277C58.17,68.282 58.222,68.302 58.264,68.335L62.293,71.449L66.991,72.736C67.092,72.764 67.17,72.845 67.192,72.948L67.72,75.362C67.735,75.431 67.724,75.504 67.688,75.565L66.655,77.328L70.311,77.328L74.389,77.403C74.465,77.404 74.537,77.436 74.589,77.491L77.229,80.282C77.326,80.385 77.332,80.544 77.243,80.654L75.583,82.69C75.569,82.707 75.553,82.722 75.536,82.736L72.041,85.414L69.882,89.508C69.855,89.558 69.814,89.599 69.764,89.626L65.766,91.738C65.736,91.754 65.704,91.764 65.67,91.769L62.845,92.131L61.936,93.32C61.914,93.348 61.887,93.372 61.857,93.391L58.84,95.201L56.623,96.384L56.508,96.545C54.379,96.841 52.209,97.006 50,97.006C49.61,97.006 49.224,96.986 48.836,96.976ZM59.623,63.664L59.623,66.127C59.623,66.263 59.526,66.379 59.393,66.404C59.375,66.407 59.358,66.409 59.341,66.409C59.226,66.409 59.121,66.339 59.078,66.229C58.688,65.222 58.491,64.63 58.491,64.469C58.48,64.351 58.269,63.659 58.079,63.09C58.041,62.976 58.08,62.85 58.175,62.777C58.271,62.704 58.403,62.7 58.503,62.767L59.498,63.43C59.575,63.481 59.623,63.57 59.623,63.664ZM56.386,61.695C56.357,61.778 56.291,61.843 56.207,61.871L54.123,62.558C54.094,62.567 54.064,62.572 54.035,62.572C53.932,62.572 53.834,62.516 53.785,62.42L53.17,61.236C53.133,61.165 53.128,61.083 53.156,61.008C53.184,60.933 53.241,60.874 53.315,60.844L54.546,60.347C54.601,60.326 54.658,60.321 54.714,60.333L55.661,60.546C55.732,60.562 55.794,60.604 55.834,60.665L56.355,61.447C56.403,61.52 56.415,61.612 56.386,61.695ZM52.892,60.252C52.91,60.356 52.868,60.462 52.783,60.526C52.411,60.806 51.746,61.283 51.485,61.335C51.247,61.383 49.867,61.621 49.867,61.621L47.877,61.625C47.763,61.625 47.66,61.557 47.616,61.451L47.379,60.883C47.319,60.74 47.387,60.575 47.53,60.515L49.662,59.615C49.697,59.6 49.734,59.593 49.772,59.593L51.24,59.593C51.268,59.593 51.297,59.597 51.324,59.606L52.698,60.032C52.799,60.063 52.874,60.148 52.892,60.252ZM43.298,60.156C43.293,60.156 43.288,60.156 43.283,60.156C43.199,60.156 43.119,60.119 43.066,60.054L41.954,58.71L40.374,57.613L38.449,57.927L36.204,58.536C36.1,58.564 35.986,58.53 35.915,58.446L35.11,57.499C35.011,57.382 35.023,57.208 35.137,57.106L36.463,55.922C36.515,55.876 36.581,55.85 36.651,55.85L39.114,55.85C39.141,55.85 39.168,55.854 39.194,55.862L42.735,56.904C42.757,56.911 42.779,56.92 42.799,56.932L45.038,58.259C45.04,58.26 45.042,58.261 45.044,58.263L46.939,59.447C47.044,59.512 47.094,59.637 47.063,59.757C47.032,59.876 46.928,59.961 46.805,59.968L43.298,60.156ZM44.56,61.609C44.558,61.739 44.466,61.851 44.34,61.879L42.114,62.376C42.094,62.381 42.073,62.383 42.052,62.383C41.993,62.383 41.935,62.365 41.887,62.329L40.513,61.334C40.414,61.262 40.372,61.135 40.41,61.019C40.447,60.903 40.556,60.824 40.678,60.824L42.383,60.824C42.407,60.824 42.431,60.827 42.455,60.833L44.35,61.331C44.475,61.364 44.562,61.479 44.56,61.609Z" style="fill:rgb(68,255,0);fill-rule:nonzero;"/>
</svg>
